<mxfile host="app.diagrams.net" modified="2023-05-01T11:54:58.254Z" agent="Mozilla/5.0 (Macintosh; Intel Mac OS X 10_15_7) AppleWebKit/537.36 (KHTML, like Gecko) Chrome/112.0.0.0 Safari/537.36" version="21.2.3" etag="5DWJXqW8QJ8dZydYJGHR" type="github">
  <diagram name="Page-1" id="Dwad5n6bbbJ22NZK7gXC">
    <mxGraphModel>
      <root>
        <mxCell id="0" />
        <mxCell id="1" parent="0" />
      </root>
    </mxGraphModel>
  </diagram>
</mxfile>
